<?xml version="1.0" standalone="no"?>
<!DOCTYPE svg PUBLIC "-//W3C//DTD SVG 20010904//EN"
 "http://www.w3.org/TR/2001/REC-SVG-20010904/DTD/svg10.dtd">
<svg version="1.0" xmlns="http://www.w3.org/2000/svg"
 width="1254.000000pt" height="1254.000000pt" viewBox="0 0 1254.000000 1254.000000"
 preserveAspectRatio="xMidYMid meet">

<g transform="translate(0.000000,1254.000000) scale(0.100000,-0.100000)"
fill="#000000" stroke="none">
<path d="M0 6270 l0 -6270 6270 0 6270 0 0 6270 0 6270 -6270 0 -6270 0 0
-6270z m8706 5315 c283 -36 452 -77 764 -184 165 -56 382 -154 515 -231 22
-13 69 -39 105 -58 36 -19 97 -58 135 -87 39 -29 102 -73 141 -98 39 -25 95
-66 125 -92 30 -27 83 -73 119 -104 128 -109 446 -446 507 -536 23 -33 53 -73
67 -90 15 -16 48 -64 73 -105 26 -41 66 -104 89 -140 47 -74 209 -392 219
-430 3 -14 17 -50 30 -80 52 -118 107 -282 145 -430 42 -163 51 -215 75 -425
9 -71 20 -154 25 -184 13 -73 13 -512 -1 -625 -35 -310 -61 -442 -144 -741 -8
-27 -25 -79 -39 -115 -13 -36 -39 -103 -56 -150 -17 -47 -41 -107 -52 -135
-33 -80 -180 -352 -242 -447 -31 -47 -56 -90 -56 -96 0 -5 -17 -29 -38 -53
-21 -24 -53 -66 -72 -94 -18 -27 -54 -73 -79 -101 -25 -29 -80 -91 -121 -139
-126 -145 -269 -283 -390 -376 -63 -49 -146 -114 -185 -143 -144 -111 -350
-239 -445 -276 -29 -12 -65 -29 -79 -39 -50 -35 -149 -80 -264 -120 -64 -22
-128 -46 -144 -54 -32 -17 -296 -103 -418 -137 -44 -12 -108 -31 -142 -41 -34
-11 -70 -19 -81 -19 -10 0 -22 -4 -27 -9 -19 -17 -171 -34 -305 -35 -137 -1
-345 10 -359 19 -5 2 -48 11 -97 20 -49 8 -154 29 -234 45 -80 17 -179 37
-220 45 -160 30 -344 84 -465 137 -44 20 -98 41 -120 48 -41 13 -393 184 -455
221 -19 12 -53 34 -75 49 -22 15 -58 37 -81 48 -22 11 -67 43 -100 69 -32 27
-79 61 -104 75 -25 14 -73 50 -107 80 -34 29 -79 64 -100 78 -21 14 -81 68
-134 120 -52 52 -111 109 -130 125 -30 27 -151 157 -251 270 -19 22 -42 54
-51 71 -9 18 -29 42 -44 55 -15 13 -47 49 -70 79 -63 81 -121 139 -167 165
-10 6 -17 15 -17 20 0 6 -10 20 -22 33 -11 12 -22 29 -23 38 -4 23 -55 94 -64
89 -14 -9 -32 57 -36 129 -2 37 -8 74 -14 81 -13 15 -24 49 -55 171 -13 50
-30 115 -38 145 -15 50 -32 122 -71 289 -81 344 -103 621 -85 1043 15 331 52
514 194 953 29 88 125 319 167 399 17 33 47 92 66 130 19 39 45 84 58 100 12
17 32 50 44 74 12 23 40 67 63 96 23 30 53 72 67 94 45 73 184 239 350 418
121 131 361 336 540 462 25 17 56 39 70 50 14 10 43 29 65 43 22 14 72 46 110
70 115 73 394 210 515 253 41 14 88 32 105 39 57 26 91 35 285 84 256 64 400
90 595 107 190 17 572 11 741 -10z m-5533 -2304 c24 -11 74 -25 113 -32 38 -6
80 -19 94 -29 14 -9 50 -29 80 -44 30 -15 69 -40 85 -55 17 -15 49 -42 73 -61
44 -34 88 -86 178 -214 117 -166 166 -448 121 -696 -30 -164 -107 -323 -237
-488 -89 -113 -137 -179 -167 -229 -22 -39 -24 -46 -12 -80 14 -43 28 -57 79
-80 143 -63 409 -195 450 -223 14 -10 48 -29 76 -43 105 -53 334 -211 406
-281 92 -88 147 -136 157 -136 5 0 53 -43 107 -95 54 -52 99 -93 102 -90 13
12 67 -68 57 -85 -3 -5 3 -7 15 -5 11 2 22 0 25 -6 4 -5 1 -9 -4 -9 -6 0 -11
-7 -11 -15 0 -8 5 -15 11 -15 5 0 7 -4 4 -10 -3 -5 -1 -10 5 -10 6 0 8 -4 5
-10 -3 -5 0 -10 7 -10 10 0 10 -2 -1 -9 -11 -7 -8 -14 13 -32 15 -13 24 -29
22 -36 -3 -7 -2 -15 3 -17 4 -3 8 -20 9 -38 1 -18 14 -71 31 -118 58 -171 69
-206 86 -285 9 -44 21 -91 26 -105 30 -87 65 -514 56 -695 -8 -169 -26 -312
-48 -400 -27 -105 -29 -112 -40 -165 -32 -155 -184 -494 -301 -671 -111 -169
-291 -371 -404 -454 -39 -29 -87 -67 -105 -84 -119 -106 -480 -312 -632 -359
-95 -30 -341 -84 -432 -96 -104 -13 -387 -17 -485 -6 -229 25 -579 122 -715
197 -16 9 -67 36 -111 59 -97 49 -294 184 -383 263 -196 172 -393 407 -477
571 -19 36 -45 78 -59 94 -13 16 -27 38 -31 50 -3 11 -21 55 -39 96 -52 118
-105 256 -105 276 0 11 -12 46 -25 79 -41 98 -85 401 -90 612 -4 176 9 299 49
466 14 60 26 122 26 137 0 46 29 157 50 193 11 19 27 58 36 88 9 30 27 74 40
99 13 25 24 49 24 54 0 28 111 224 156 276 12 14 30 42 40 62 26 50 135 178
272 318 110 112 184 175 307 261 33 24 62 46 65 50 3 4 41 26 85 49 44 24 87
48 95 55 19 15 210 112 312 159 163 73 220 192 135 278 -8 7 -37 47 -67 88
-29 41 -61 84 -71 95 -25 28 -142 223 -158 265 -8 19 -23 55 -33 79 -11 23
-24 83 -29 132 -5 50 -14 110 -20 134 -11 45 -7 89 28 270 25 129 126 325 218
419 104 106 155 144 310 226 89 47 172 69 300 78 181 14 204 13 248 -7z m1784
-2927 c10 -10 12 -19 6 -25 -6 -6 -14 0 -21 16 -13 29 -8 32 15 9z m3727
-2175 c96 -17 329 -136 441 -224 53 -41 100 -75 104 -75 4 0 31 -29 60 -65 29
-36 70 -85 91 -108 55 -60 178 -305 186 -371 3 -28 15 -85 26 -126 18 -64 20
-95 15 -215 -4 -119 -10 -160 -41 -272 -35 -130 -99 -275 -163 -370 -46 -68
-184 -207 -243 -245 -224 -144 -234 -149 -370 -177 -187 -39 -376 -32 -540 19
-52 17 -106 39 -120 50 -14 11 -67 44 -119 73 -64 35 -107 68 -136 102 -24 28
-64 65 -88 84 -33 25 -63 64 -111 145 -76 131 -93 168 -134 302 -24 77 -32
125 -36 208 -3 59 -7 110 -9 113 -3 2 -1 21 4 41 5 20 13 78 18 128 17 169
114 403 218 528 18 22 33 44 33 49 0 22 190 193 284 256 103 70 254 135 346
151 68 12 219 11 284 -1z m-2611 -1103 c40 -8 108 -21 152 -30 79 -15 96 -23
332 -153 35 -19 78 -53 97 -77 20 -23 46 -48 58 -55 45 -23 162 -180 206 -276
11 -22 33 -70 51 -108 29 -63 44 -117 73 -275 17 -97 -4 -376 -36 -468 -64
-180 -116 -289 -164 -346 -15 -18 -40 -51 -54 -74 -15 -23 -41 -52 -58 -65
-17 -13 -59 -50 -92 -82 -38 -36 -86 -70 -127 -88 -36 -16 -75 -38 -86 -49
-29 -28 -74 -44 -218 -80 l-128 -31 -172 11 c-198 13 -219 17 -336 71 -164 75
-212 104 -262 156 -27 28 -57 54 -68 58 -26 8 -90 79 -106 119 -7 17 -27 41
-43 53 -18 13 -44 51 -62 90 -17 38 -38 82 -47 98 -43 83 -105 338 -107 435
-2 138 11 264 31 305 11 22 25 63 32 90 6 28 27 82 46 120 18 39 41 88 50 110
9 22 34 60 56 85 22 25 46 56 54 70 15 29 172 177 228 214 48 33 113 66 128
66 7 0 27 11 45 25 47 36 96 51 189 59 44 3 103 13 130 21 65 18 119 18 208 1z"/>
<path d="M2439 9073 c-13 -16 -12 -17 4 -4 9 7 17 15 17 17 0 8 -8 3 -21 -13z"/>
<path d="M2358 9003 c-46 -49 -110 -130 -129 -164 -19 -37 -1 -18 34 34 19 30
61 81 92 115 67 73 70 83 3 15z"/>
<path d="M3660 8966 c0 -2 8 -10 18 -17 15 -13 16 -12 3 4 -13 16 -21 21 -21
13z"/>
<path d="M3690 8926 c0 -2 8 -10 18 -17 15 -13 16 -12 3 4 -13 16 -21 21 -21
13z"/>
<path d="M2111 8544 c0 -11 3 -14 6 -6 3 7 2 16 -1 19 -3 4 -6 -2 -5 -13z"/>
<path d="M2101 8494 c0 -11 3 -14 6 -6 3 7 2 16 -1 19 -3 4 -6 -2 -5 -13z"/>
<path d="M2091 8384 c0 -11 3 -14 6 -6 3 7 2 16 -1 19 -3 4 -6 -2 -5 -13z"/>
<path d="M2092 8285 c0 -16 2 -22 5 -12 2 9 2 23 0 30 -3 6 -5 -1 -5 -18z"/>
<path d="M2101 8204 c0 -11 3 -14 6 -6 3 7 2 16 -1 19 -3 4 -6 -2 -5 -13z"/>
<path d="M9194 2198 l-19 -23 23 19 c12 11 22 21 22 23 0 8 -8 2 -26 -19z"/>
<path d="M7920 2176 c0 -2 8 -10 18 -17 15 -13 16 -12 3 4 -13 16 -21 21 -21
13z"/>
<path d="M5229 2743 l-34 -38 38 34 c34 33 42 41 34 41 -2 0 -19 -17 -38 -37z"/>
<path d="M5144 2648 l-19 -23 23 19 c12 11 22 21 22 23 0 8 -8 2 -26 -19z"/>
<path d="M5089 2573 c-13 -16 -12 -17 4 -4 9 7 17 15 17 17 0 8 -8 3 -21 -13z"/>
<path d="M5060 2530 c-6 -11 -8 -20 -6 -20 3 0 10 9 16 20 6 11 8 20 6 20 -3
0 -10 -9 -16 -20z"/>
<path d="M5020 2459 c-12 -23 -20 -43 -18 -45 3 -2 14 17 26 41 27 56 20 60
-8 4z"/>
<path d="M4951 2284 c0 -11 3 -14 6 -6 3 7 2 16 -1 19 -3 4 -6 -2 -5 -13z"/>
<path d="M4921 2164 c0 -11 3 -14 6 -6 3 7 2 16 -1 19 -3 4 -6 -2 -5 -13z"/>
<path d="M4912 2100 c0 -14 2 -19 5 -12 2 6 2 18 0 25 -3 6 -5 1 -5 -13z"/>
<path d="M4902 2010 c0 -14 2 -19 5 -12 2 6 2 18 0 25 -3 6 -5 1 -5 -13z"/>
<path d="M4921 1744 c0 -11 3 -14 6 -6 3 7 2 16 -1 19 -3 4 -6 -2 -5 -13z"/>
<path d="M5170 1226 c0 -2 8 -10 18 -17 15 -13 16 -12 3 4 -13 16 -21 21 -21
13z"/>
<path d="M5260 1135 c19 -19 36 -35 39 -35 3 0 -10 16 -29 35 -19 19 -36 35
-39 35 -3 0 10 -16 29 -35z"/>
<path d="M5310 1096 c0 -2 8 -10 18 -17 15 -13 16 -12 3 4 -13 16 -21 21 -21
13z"/>
</g>
</svg>
